<?xml version="1.0" encoding="utf-8"?>
<!-- Generator: Adobe Illustrator 24.1.1, SVG Export Plug-In . SVG Version: 6.00 Build 0)  -->
<svg version="1.1" id="Layer_1" xmlns="http://www.w3.org/2000/svg" xmlns:xlink="http://www.w3.org/1999/xlink" x="0px" y="0px"
	 viewBox="0 0 35.9 36" style="enable-background:new 0 0 35.9 36;" xml:space="preserve">
<style type="text/css">
	.st0{opacity:0.8;fill-rule:evenodd;clip-rule:evenodd;fill:#E95D48;}
	.st1{opacity:0.8;fill-rule:evenodd;clip-rule:evenodd;fill:#FEBF57;}
	.st2{opacity:0.8;fill-rule:evenodd;clip-rule:evenodd;fill:#6C9FEB;}
	.st3{opacity:0.8;fill-rule:evenodd;clip-rule:evenodd;fill:#C769CB;}
</style>
<g>
	<path class="st0" d="M34.5,18.6l-2.5-2.5c-0.2-0.2-0.3-0.5-0.3-0.7v-3c0-2.8-0.3-3.8-0.8-4.8c-0.6-1-1.3-1.8-2.4-2.4
		s-2.1-0.8-4.9-0.8h-4.1c-0.1,0-0.2-0.1-0.2-0.2c0-0.1,0-0.1,0.1-0.2L22,1.6c0.1-0.1,0.4-0.2,0.7-0.2H24c3.8,0,5.2,0.4,6.5,1.1
		c1.4,0.7,2.5,1.8,3.2,3.1s1.1,2.7,1.1,6.4v6.5c0,0.1-0.1,0.2-0.2,0.2C34.6,18.7,34.6,18.7,34.5,18.6z"/>
	<path class="st0" d="M29.2,13.5l-3.4-3.2c-0.2-0.2-0.5-0.4-0.8-0.5c-0.3,0-0.5-0.1-0.8-0.1H14.2c-0.1,0-0.2-0.1-0.2-0.2
		c0-0.1,0-0.1,0.1-0.2l2.5-2.4c0.2-0.2,0.5-0.3,0.8-0.3h8c2.4,0,4.2,1.8,4.2,4.2v2.6c0,0.1-0.1,0.2-0.2,0.2S29.3,13.6,29.2,13.5z"/>
</g>
<g>
	<path class="st1" d="M17.2,34.3l2.5-2.5c0.2-0.2,0.5-0.3,0.8-0.3h3c2.8,0,3.9-0.3,4.9-0.8c1-0.6,1.9-1.4,2.4-2.4
		c0.6-1,0.8-2,0.8-4.8v-4c0-0.1,0.1-0.2,0.2-0.2s0.1,0,0.2,0.1l2.5,2.5c0.2,0.2,0.3,0.5,0.3,0.7V24c0,3.7-0.4,5.1-1.1,6.4
		c-0.8,1.4-1.8,2.4-3.2,3.1s-2.7,1.1-6.5,1.1h-6.6c-0.1,0-0.2-0.1-0.2-0.2C17.2,34.4,17.2,34.3,17.2,34.3z"/>
	<path class="st1" d="M22.5,29.1l3.3-3.3c0.2-0.2,0.4-0.5,0.5-0.7c0.1-0.2,0.1-0.5,0.1-0.7v-10c0-0.1,0.1-0.2,0.2-0.2s0.1,0,0.2,0.1
		l2.5,2.5c0.2,0.2,0.3,0.5,0.3,0.7v7.9c0,2.3-1.9,4.2-4.2,4.2h-2.6c-0.1,0-0.2-0.1-0.2-0.2V29.1z"/>
</g>
<g>
	<path class="st2" d="M1.4,17.4l2.5,2.4c0.2,0.2,0.3,0.5,0.3,0.7v3c0,2.8,0.3,3.8,0.8,4.8c0.6,1,1.3,1.8,2.4,2.4
		c1,0.6,2.1,0.8,4.9,0.8h4.1c0.1,0,0.2,0.1,0.2,0.2c0,0.1,0,0.1-0.1,0.2l-2.5,2.5c0,0.1-0.3,0.2-0.6,0.2h-1.4
		c-3.8,0-5.2-0.4-6.5-1.1c-1.4-0.7-2.5-1.8-3.2-3.1C1.4,29,1,27.7,1,24v-6.5c0-0.1,0.1-0.2,0.2-0.2C1.3,17.3,1.3,17.3,1.4,17.4z"/>
	<g>
		<path class="st2" d="M6.7,22.5l3.4,3.2c0.2,0.2,0.5,0.4,0.8,0.5c0.2,0.1,0.5,0.1,0.8,0.1h10.1c0.1,0,0.2,0.1,0.2,0.2
			c0,0.1,0,0.1-0.1,0.2l-2.5,2.4c-0.2,0.2-0.5,0.3-0.8,0.3h-8c-2.4,0-4.2-1.8-4.2-4.2v-2.6c0-0.1,0.1-0.2,0.2-0.2S6.7,22.4,6.7,22.5
			z"/>
	</g>
</g>
<g>
	<path class="st3" d="M16.1,4.1c-0.2,0.2-0.5,0.3-0.8,0.3h-3c-2.8,0-3.9,0.3-4.9,0.8S5.6,6.6,5.1,7.7c-0.6,1-0.8,2-0.8,4.8v4
		c0,0.1-0.1,0.2-0.2,0.2c-0.1,0-0.1,0-0.2-0.1L1.3,14C1.1,13.9,1,13.7,1,13.4V12c0-3.7,0.4-5.1,1.1-6.4C2.9,4.2,4,3.2,5.4,2.5
		s2.7-1.1,6.5-1.1h6.6c0.1,0,0.2,0.1,0.2,0.2c0,0.1,0,0.1-0.1,0.2L16.1,4.1z"/>
	<path class="st3" d="M13.4,6.9l-3.3,3.3c-0.2,0.2-0.4,0.5-0.5,0.7c-0.1,0.3-0.1,0.6-0.1,0.8v9.9c0,0.1-0.1,0.2-0.2,0.2
		c-0.1,0-0.1,0-0.2-0.1l-2.5-2.5c-0.2-0.2-0.3-0.5-0.3-0.7v-7.9c0-2.3,1.9-4.2,4.2-4.2h2.6c0.1,0,0.2,0.1,0.2,0.2
		C13.5,6.8,13.4,6.9,13.4,6.9z"/>
</g>
</svg>
