<svg xmlns="http://www.w3.org/2000/svg" viewBox="0 0 730.36 547.467" height="547.467" width="730.36"><path fill="#CF649A" d="M516.417 413.708c-2.317-1.65-1.932-6.98 5.69-23.583 2.992-6.518 9.818-17.493 21.686-27.981 1.375 4.313 2.214 8.45 2.19 12.3-.154 25.688-18.482 35.281-29.566 39.264zm-97.557 22.238c-3.107 1.626-5.955 2.647-7.279 1.86-.97-.58 1.282-2.72 1.282-2.72s15.841-17.04 22.08-24.8a845.847 845.847 0 0 0 12.422-15.86c.038.6.058 1.193.058 1.78-.047 20.415-19.768 34.2-28.563 39.74zm-126.637-60.423c-7.328 17.865-22.666 63.57-32 61.12-8.014-2.102-12.894-36.846-1.6-71.039 5.684-17.212 17.826-37.779 24.96-45.761 11.484-12.846 24.128-17.047 27.2-11.839 3.916 6.636-13.966 56.32-18.56 67.519zm-153.28 104.202c-21.04 22.954-50.435 31.628-63.04 24.322-13.61-7.892-8.22-41.684 17.6-66.042 15.737-14.844 36.053-28.516 49.53-36.937 3.067-1.845 7.574-4.556 13.05-7.837.908-.518 1.42-.804 1.42-.804l-.02-.035 3.258-1.95c9.395 34.67.286 65.192-21.798 89.283zm489.613-165.064c-25.527.135-47.636 6.263-66.17 15.398-6.778-13.528-13.638-25.43-14.79-34.279-1.345-10.33-2.904-16.493-1.28-28.8 1.625-12.307 8.745-29.733 8.641-31.039-.104-1.305-1.597-7.574-16.32-7.681-14.724-.105-27.318 2.832-28.8 6.72-1.482 3.888-4.317 12.637-6.081 21.76-2.579 13.35-29.396 60.964-44.623 85.873-4.98-9.721-9.214-18.293-10.097-25.072-1.344-10.33-2.904-16.493-1.28-28.801 1.625-12.305 8.745-29.735 8.641-31.04-.104-1.305-1.596-7.573-16.32-7.68-14.724-.105-27.318 2.832-28.8 6.72-1.482 3.888-3.065 12.972-6.081 21.76-3.016 8.79-38.664 88.215-48 108.801-4.757 10.49-8.897 18.916-11.82 24.672l-.019-.032s-.18.383-.49 1.03c-2.502 4.898-3.991 7.609-3.991 7.609l.044.101c-1.984 3.598-4.11 6.939-5.164 6.939-.736 0-2.21-9.576.321-22.72 5.304-27.552 18.047-70.52 17.92-72-.066-.759 2.368-8.245-8.321-12.16-10.39-3.803-14.09 2.54-15.039 2.56-.918.02-1.601 2.241-1.601 2.241s11.576-48.32-22.08-48.32c-21.041 0-50.197 23.018-64.56 43.882a18943.071 18943.071 0 0 0-72.656 39.832c-.52-.576-1.039-1.154-1.573-1.724-40.81-43.54-116.252-74.336-113.05-132.871 1.163-21.28 8.56-77.312 144.96-145.28 111.734-55.677 201.182-40.356 216.64-6.4 22.083 48.512-47.805 138.673-163.841 151.68-44.21 4.956-67.49-12.177-73.28-18.56-6.095-6.717-7.004-7.02-9.28-5.76-3.707 2.055-1.357 7.985 0 11.52 3.465 9.017 17.681 25.007 41.92 32.96 21.323 6.997 73.23 10.841 136-13.44 70.307-27.195 125.205-102.845 109.08-166.08-16.399-64.313-123.035-85.456-223.959-49.6-60.065 21.339-125.088 54.83-171.84 98.56C5.928 167.936-2.936 213.19.717 232.1c12.978 67.188 105.585 110.941 142.668 143.368l-5.108 2.819c-18.592 9.197-89.183 46.14-106.84 85.173-20.03 44.276 3.188 76.043 18.56 80.32 47.624 13.252 96.495-10.584 122.759-49.759 26.259-39.165 23.052-90.162 11-113.441-.15-.29-.315-.572-.468-.859 4.8-2.841 9.696-5.73 14.548-8.58 9.463-5.556 18.75-10.74 26.812-15.126-4.51 12.358-7.813 27.172-9.532 48.565-2.019 25.134 8.281 57.62 21.76 70.401 5.935 5.627 13.075 5.76 17.6 5.76 15.684 0 22.841-13.049 30.72-28.481 9.665-18.927 18.24-40.96 18.24-40.96s-10.763 59.52 18.561 59.52c10.684 0 21.432-13.855 26.219-20.919l.02.119s.279-.46.823-1.383c1.109-1.696 1.737-2.776 1.737-2.776l.056-.306c4.295-7.458 13.82-24.46 28.105-52.495 18.456-36.223 36.159-81.6 36.159-81.6s1.647 11.095 7.04 29.44c3.173 10.795 9.915 22.727 15.233 34.17-4.281 5.94-6.913 9.351-6.913 9.351l.072.178c-3.421 4.541-7.257 9.442-11.27 14.221-14.567 17.35-31.918 37.161-34.242 42.88-2.736 6.737-2.09 11.693 3.2 15.68 3.864 2.912 10.743 3.364 17.92 2.88 13.09-.88 22.301-4.127 26.845-6.104 7.084-2.505 15.334-6.446 23.076-12.136 14.29-10.505 22.908-25.534 22.08-45.44-.458-10.97-3.957-21.844-8.382-32.11a873.251 873.251 0 0 0 3.901-5.65c22.527-32.932 40-69.12 40-69.12s1.647 11.093 7.041 29.44c2.73 9.287 8.115 19.416 12.958 29.352-21.182 17.21-34.318 37.208-38.879 50.328-8.433 24.263-1.828 35.257 10.561 37.76 5.612 1.135 13.538-1.437 19.5-3.961 7.419-2.46 16.334-6.558 24.66-12.678 14.29-10.505 28.028-25.216 27.2-45.121-.378-9.063-2.836-18.057-6.17-26.699 17.954-7.478 41.201-11.637 70.81-8.18 63.52 7.418 75.982 47.079 73.6 63.679-2.382 16.601-15.706 25.725-20.161 28.482-4.453 2.754-5.813 3.71-5.439 5.76.542 2.978 2.602 2.863 6.399 2.223 5.23-.882 33.356-13.502 34.56-44.144 1.53-38.901-35.741-81.632-101.76-81.28"/></svg>